PathFileType	3	(X/Y/Z)	D:\minhoCalibration\240510\subject1_KPNP\preferred\preferred03.trc
DataRate	CameraRate	NumFrames	NumMarkers	Units	OrigDataRate	OrigDataStartFrame	OrigNumFrames
200.0	200.0	18	10	mm	200.0	205	196	
Frame#	Time	Left_Ankle_Outer1			Left_Ankle_Inner1			Left_Knee_Outer1			Left_Knee_Inner1			Left_Wrist1			Right_Wrist1			Right_Knee_Inner1			Right_Knee_Outer1			Right_Ankle_Inner1			Right_Ankle_Outer1			
		X1	Y1	Z1	X2	Y2	Z2	X3	Y3	Z3	X4	Y4	Z4	X5	Y5	Z5	X6	Y6	Z6	X7	Y7	Z7	X8	Y8	Z8	X9	Y9	Z9	X10	Y10	Z10	
205	1.015	-504.19705	127.38784	-588.01593	-552.50043	134.24988	-554.85004	-440.23886	570.75067	-470.6312	-551.34357	532.64252	-474.01883	-485.21152	964.38123	-667.59784	-704.29669	976.59753	-943.36554	-685.67572	501.45535	-938.47797	-715.43988	542.9389	-1037.202	-592.77185	111.55171	-1118.6361	-626.38196	123.30762	-1206.0624
206	1.02	-508.4744	127.0575	-586.94312	-556.08734	133.95879	-553.16742	-439.37741	569.06244	-468.90491	-550.68335	532.08081	-470.40555	-483.8891	962.44263	-665.82513	-703.38971	976.06812	-941.57739	-684.97015	500.61148	-937.12799	-715.43726	542.3551	-1035.6398	-592.51581	111.25903	-1118.241	-626.16724	123.52931	-1205.6429
207	1.025	-512.53418	126.80546	-585.75525	-559.83099	133.63794	-551.64001	-438.5585	567.47833	-466.85617	-550.2464	531.6084	-466.93063	-482.58658	960.45569	-664.02356	-702.60114	975.40485	-938.98254	-685.17194	499.70728	-935.11121	-715.53925	541.83679	-1034.058	-592.27637	110.96261	-1117.8408	-625.95789	123.50787	-1205.2515
208	1.03	-516.56482	126.48006	-584.62653	-563.27863	133.37267	-549.86285	-437.85086	565.95197	-464.59833	-550.06696	531.09247	-463.44418	-481.14127	958.4527	-662.22272	-701.60675	974.94672	-936.99518	-684.8797	498.67786	-933.55139	-715.73517	541.03949	-1032.2188	-592.13861	110.7362	-1117.5017	-625.85419	123.62224	-1204.8069
209	1.035	-520.52533	126.06014	-583.07123	-566.54663	133.15726	-548.09485	-437.48395	564.50879	-462.00708	-550.06128	530.54791	-460.16089	-479.75131	956.39038	-660.38239	-701.22333	973.95447	-934.06262	-684.82941	497.78622	-931.58246	-716.09619	540.32422	-1030.3016	-591.8324	110.55058	-1117.2388	-625.74426	123.84808	-1204.3563
210	1.04	-523.99152	125.84814	-581.87457	-569.34674	133.02113	-546.43195	-437.05173	563.24115	-459.04755	-550.25983	530.01001	-456.91125	-478.22534	954.34412	-658.56042	-700.6712	973.25269	-930.64789	-685.78638	496.95657	-929.19153	-716.74323	539.79895	-1028.4291	-591.80383	110.45832	-1116.9271	-625.83405	123.98148	-1203.9379
211	1.045	-526.6557	125.90376	-581.15485	-571.83917	132.77124	-545.07068	-437.04745	562.02606	-456.04517	-550.57831	529.50043	-453.97348	-476.6189	952.28821	-656.63898	-700.26562	972.14673	-927.7774	-685.85284	495.72775	-927.29803	-717.51361	539.04034	-1026.3794	-591.70081	110.33928	-1116.7111	-626.125	123.92628	-1203.4044
212	1.05	-528.82788	125.87035	-580.11237	-574.01154	132.60153	-543.97845	-437.27896	560.82269	-452.96896	-550.9259	528.87762	-451.0463	-474.91443	950.29736	-654.7442	-699.93054	971.04218	-924.18805	-686.27948	494.59778	-925.04163	-718.43964	538.203	-1024.0751	-591.7561	110.35859	-1116.4449	-626.24707	124.10806	-1203.1018
213	1.055	-530.521	125.86287	-579.25336	-575.54834	132.56248	-543.20123	-437.4863	559.86151	-449.61819	-551.41876	528.28711	-448.1835	-473.12405	948.32361	-652.77081	-699.276	970.29199	-921.17853	-686.66901	493.47003	-922.84814	-719.5498	537.38373	-1021.6339	-591.90173	110.38085	-1116.1792	-626.53223	124.55712	-1202.708
214	1.06	-531.57904	125.86531	-578.58136	-576.62421	132.41069	-542.93604	-437.79538	558.94678	-446.16898	-551.91083	527.65631	-445.47549	-471.33865	946.45532	-650.75763	-699.34698	969.01923	-916.71747	-687.96533	492.08981	-920.14905	-720.84161	536.66119	-1018.9993	-592.07471	110.52316	-1115.8613	-626.72198	125.43091	-1202.5463
215	1.065	-531.98096	125.93706	-578.10767	-577.16919	132.42014	-542.68427	-437.90308	558.17542	-442.44394	-552.41321	527.0672	-442.88519	-469.42596	944.6756	-648.71759	-698.56226	968.57971	-914.24738	-689.30884	490.85736	-917.13165	-722.39215	535.86047	-1016.1793	-592.26355	110.85268	-1115.5278	-627.14117	126.15906	-1202.0682
216	1.07	-531.7937	126.00744	-577.7572	-577.2179	132.34076	-542.77777	-438.38016	557.40948	-438.83173	-552.97003	526.37958	-440.31226	-467.50455	942.95392	-646.54633	-698.51135	967.25537	-910.20569	-690.70697	489.68781	-913.96545	-724.13831	535.09229	-1013.1226	-592.54645	111.40934	-1115.0269	-627.4649	126.99586	-1201.4781
217	1.075	-530.86664	126.14933	-577.49152	-576.56976	132.16249	-543.19824	-439.02472	556.66254	-435.18893	-553.49591	525.71631	-437.85056	-465.50256	941.36963	-644.27979	-698.11377	966.51898	-906.24847	-692.41461	488.51642	-910.58807	-726.03302	534.33105	-1009.8077	-592.92108	112.03099	-1114.4349	-628.05768	127.5485	-1200.6581
218	1.08	-529.06854	126.22446	-577.41956	-575.23187	131.88066	-543.88855	-439.85007	555.89923	-431.82693	-554.01416	525.00214	-435.41275	-463.34171	939.97955	-641.92096	-697.60687	965.67743	-902.79041	-694.28076	487.38528	-906.89136	-728.21313	533.70953	-1006.1331	-593.52216	112.86792	-1113.5341	-628.33759	129.21449	-1200.0172
219	1.085	-526.47632	126.21883	-577.41901	-573.17816	131.3951	-544.83734	-440.56564	555.21429	-428.27325	-554.435	524.34406	-433.16953	-461.2345	938.7453	-639.56537	-697.58038	964.45233	-898.28137	-696.61865	486.40488	-902.71301	-730.73199	533.1145	-1002.2059	-594.1662	113.87021	-1112.6497	-628.85358	130.81734	-1198.9769
220	1.09	-523.17413	126.17175	-577.36652	-570.9826	131.50279	-546.84186	-441.25171	554.5528	-424.76291	-554.87878	523.65881	-431.10974	-458.95224	937.76306	-636.95447	-697.40753	963.39526	-893.70068	-699.37616	485.44061	-898.1579	-733.50714	532.65381	-997.98706	-594.98785	115.20258	-1111.455	-629.45392	132.73785	-1197.7529
221	1.095	-519.36749	126.22303	-577.28809	-567.73383	131.20621	-548.20123	-441.75665	553.93866	-421.09332	-555.26355	523.03784	-429.22992	-456.66089	937.09454	-634.28143	-697.315	962.99841	-888.60022	-702.64624	484.68677	-892.92737	-736.67389	532.32758	-993.3476	-595.74524	117.18322	-1110.1049	-630.17297	135.25279	-1196.2949
222	1.1	-515.10718	126.19386	-577.1955	-564.19501	131.01118	-549.30518	-442.405	553.33234	-417.64664	-555.54504	522.39246	-427.78079	-454.24442	936.74854	-631.33331	-696.5976	962.44135	-883.97552	-706.27869	484.07843	-887.3277	-740.10608	532.22235	-988.11774	-596.77118	119.39552	-1108.5767	-631.06323	138.11067	-1194.7001
